<mxfile host="app.diagrams.net" agent="Mozilla/5.0 (Windows NT 10.0; Win64; x64) AppleWebKit/537.36 (KHTML, like Gecko) Chrome/122.0.0.0 Safari/537.36 Edg/122.0.0.0" version="26.0.11" pages="3">
  <diagram id="C22Zyo9x9_IkmYV2H3KQ" name="Process order">
    <mxGraphModel dx="1484" dy="813" grid="1" gridSize="10" guides="1" tooltips="1" connect="1" arrows="1" fold="1" page="0" pageScale="1" pageWidth="827" pageHeight="1169" math="0" shadow="0">
      <root>
        <mxCell id="0" />
        <mxCell id="1" parent="0" />
        <mxCell id="gj7Lqz_uDxO7MRF6QAoS-5" value="Items&#39;R&#39;us" style="swimlane;html=1;childLayout=stackLayout;resizeParent=1;resizeParentMax=0;horizontal=0;startSize=20;horizontalStack=0;" parent="1" vertex="1">
          <mxGeometry x="-370" y="250" width="1810" height="520" as="geometry" />
        </mxCell>
        <mxCell id="gj7Lqz_uDxO7MRF6QAoS-6" value="Accounts" style="swimlane;html=1;startSize=20;horizontal=0;fillColor=#dae8fc;strokeColor=#4E668A;" parent="gj7Lqz_uDxO7MRF6QAoS-5" vertex="1">
          <mxGeometry x="20" width="1790" height="160" as="geometry" />
        </mxCell>
        <mxCell id="gj7Lqz_uDxO7MRF6QAoS-11" value="Order received" style="shape=mxgraph.bpmn.event;html=1;verticalLabelPosition=bottom;labelBackgroundColor=#ffffff;verticalAlign=top;align=center;perimeter=ellipsePerimeter;outlineConnect=0;aspect=fixed;outline=standard;symbol=message;" parent="gj7Lqz_uDxO7MRF6QAoS-6" vertex="1">
          <mxGeometry x="60" y="30" width="50" height="50" as="geometry" />
        </mxCell>
        <mxCell id="gj7Lqz_uDxO7MRF6QAoS-13" value="Check &#xa;availability" style="shape=mxgraph.bpmn.task;rectStyle=rounded;size=10;taskMarker=script;" parent="gj7Lqz_uDxO7MRF6QAoS-6" vertex="1">
          <mxGeometry x="160" y="17.5" width="110" height="75" as="geometry" />
        </mxCell>
        <mxCell id="gj7Lqz_uDxO7MRF6QAoS-14" value="" style="edgeStyle=orthogonalEdgeStyle;rounded=0;orthogonalLoop=1;jettySize=auto;html=1;" parent="gj7Lqz_uDxO7MRF6QAoS-6" source="gj7Lqz_uDxO7MRF6QAoS-11" target="gj7Lqz_uDxO7MRF6QAoS-13" edge="1">
          <mxGeometry relative="1" as="geometry" />
        </mxCell>
        <mxCell id="gj7Lqz_uDxO7MRF6QAoS-15" value="" style="shape=mxgraph.bpmn.event;html=1;verticalLabelPosition=bottom;labelBackgroundColor=#ffffff;verticalAlign=top;align=center;perimeter=ellipsePerimeter;outlineConnect=0;aspect=fixed;outline=boundInt;symbol=multiple;fontFamily=Helvetica;fontSize=12;fontColor=#000000;strokeColor=#000000;fillColor=#ffffff;" parent="gj7Lqz_uDxO7MRF6QAoS-6" vertex="1">
          <mxGeometry x="300" y="30" width="50" height="50" as="geometry" />
        </mxCell>
        <mxCell id="gj7Lqz_uDxO7MRF6QAoS-16" value="" style="edgeStyle=orthogonalEdgeStyle;rounded=0;orthogonalLoop=1;jettySize=auto;html=1;" parent="gj7Lqz_uDxO7MRF6QAoS-6" source="gj7Lqz_uDxO7MRF6QAoS-13" target="gj7Lqz_uDxO7MRF6QAoS-15" edge="1">
          <mxGeometry relative="1" as="geometry" />
        </mxCell>
        <mxCell id="G3vWXNh6A1pPj3LREwGl-1" value="Send invoice" style="shape=mxgraph.bpmn.task;rectStyle=rounded;size=10;taskMarker=send;labelBackgroundColor=#ffffff;" parent="gj7Lqz_uDxO7MRF6QAoS-6" vertex="1">
          <mxGeometry x="1040" y="10" width="90" height="60" as="geometry" />
        </mxCell>
        <mxCell id="DeSNE2LEJQVDBhBTEOND-9" value="" style="edgeStyle=orthogonalEdgeStyle;rounded=0;jumpStyle=arc;jumpSize=13;orthogonalLoop=1;jettySize=auto;html=1;startArrow=none;startFill=0;endArrow=classic;endFill=1;strokeColor=#000000;strokeWidth=1;" parent="gj7Lqz_uDxO7MRF6QAoS-6" source="DeSNE2LEJQVDBhBTEOND-26" target="DeSNE2LEJQVDBhBTEOND-10" edge="1">
          <mxGeometry relative="1" as="geometry">
            <mxPoint x="1170" y="50" as="targetPoint" />
          </mxGeometry>
        </mxCell>
        <mxCell id="DeSNE2LEJQVDBhBTEOND-10" value="" style="shape=mxgraph.bpmn.gateway2;html=1;verticalLabelPosition=bottom;labelBackgroundColor=#ffffff;verticalAlign=top;align=center;perimeter=rhombusPerimeter;outlineConnect=0;outline=none;symbol=none;gwType=exclusive;fontFamily=Helvetica;fontSize=12;fontColor=#000000;strokeColor=#000000;fillColor=#FFFFFF;" parent="gj7Lqz_uDxO7MRF6QAoS-6" vertex="1">
          <mxGeometry x="1230" y="21" width="40" height="35" as="geometry" />
        </mxCell>
        <mxCell id="DeSNE2LEJQVDBhBTEOND-13" value="Send receipt" style="shape=mxgraph.bpmn.task;rectStyle=rounded;size=10;taskMarker=send;labelBackgroundColor=none;fillColor=#FFFFFF;" parent="gj7Lqz_uDxO7MRF6QAoS-6" vertex="1">
          <mxGeometry x="1200" y="85" width="90" height="60" as="geometry" />
        </mxCell>
        <mxCell id="DeSNE2LEJQVDBhBTEOND-14" value="" style="edgeStyle=orthogonalEdgeStyle;rounded=0;jumpStyle=arc;jumpSize=13;orthogonalLoop=1;jettySize=auto;html=1;startArrow=none;startFill=0;endArrow=classic;endFill=1;strokeColor=#000000;strokeWidth=1;" parent="gj7Lqz_uDxO7MRF6QAoS-6" source="DeSNE2LEJQVDBhBTEOND-10" target="DeSNE2LEJQVDBhBTEOND-13" edge="1">
          <mxGeometry relative="1" as="geometry">
            <Array as="points">
              <mxPoint x="1245" y="105" />
            </Array>
          </mxGeometry>
        </mxCell>
        <mxCell id="DeSNE2LEJQVDBhBTEOND-18" value="Payment received" style="edgeLabel;html=1;align=center;verticalAlign=middle;resizable=0;points=[];" parent="DeSNE2LEJQVDBhBTEOND-14" vertex="1" connectable="0">
          <mxGeometry x="-0.6741" relative="1" as="geometry">
            <mxPoint x="15" y="8" as="offset" />
          </mxGeometry>
        </mxCell>
        <mxCell id="DeSNE2LEJQVDBhBTEOND-16" value="" style="edgeStyle=orthogonalEdgeStyle;rounded=0;jumpStyle=arc;jumpSize=13;orthogonalLoop=1;jettySize=auto;html=1;startArrow=none;startFill=0;endArrow=classic;endFill=1;strokeColor=#000000;strokeWidth=1;" parent="gj7Lqz_uDxO7MRF6QAoS-6" source="DeSNE2LEJQVDBhBTEOND-10" target="DeSNE2LEJQVDBhBTEOND-29" edge="1">
          <mxGeometry relative="1" as="geometry">
            <mxPoint x="1450" y="50" as="targetPoint" />
            <Array as="points">
              <mxPoint x="1320" y="40" />
              <mxPoint x="1320" y="40" />
            </Array>
          </mxGeometry>
        </mxCell>
        <mxCell id="DeSNE2LEJQVDBhBTEOND-19" value="Payment late" style="edgeLabel;html=1;align=center;verticalAlign=middle;resizable=0;points=[];" parent="DeSNE2LEJQVDBhBTEOND-16" vertex="1" connectable="0">
          <mxGeometry x="-0.536" y="-2" relative="1" as="geometry">
            <mxPoint x="27" y="-12" as="offset" />
          </mxGeometry>
        </mxCell>
        <mxCell id="DeSNE2LEJQVDBhBTEOND-26" value="" style="shape=mxgraph.bpmn.event;html=1;verticalLabelPosition=bottom;labelBackgroundColor=#ffffff;verticalAlign=top;align=center;perimeter=ellipsePerimeter;outlineConnect=0;aspect=fixed;outline=boundInt;symbol=timer;fillColor=#FFFFFF;" parent="gj7Lqz_uDxO7MRF6QAoS-6" vertex="1">
          <mxGeometry x="1160" y="22" width="35" height="35" as="geometry" />
        </mxCell>
        <mxCell id="DeSNE2LEJQVDBhBTEOND-27" value="" style="edgeStyle=orthogonalEdgeStyle;rounded=0;jumpStyle=arc;jumpSize=13;orthogonalLoop=1;jettySize=auto;html=1;startArrow=none;startFill=0;endArrow=none;endFill=1;strokeColor=#000000;strokeWidth=1;" parent="gj7Lqz_uDxO7MRF6QAoS-6" source="G3vWXNh6A1pPj3LREwGl-1" target="DeSNE2LEJQVDBhBTEOND-26" edge="1">
          <mxGeometry relative="1" as="geometry">
            <mxPoint x="780" y="300" as="sourcePoint" />
            <mxPoint x="880" y="300" as="targetPoint" />
          </mxGeometry>
        </mxCell>
        <mxCell id="DeSNE2LEJQVDBhBTEOND-35" value="First reminder" style="edgeStyle=orthogonalEdgeStyle;rounded=0;jumpStyle=arc;jumpSize=13;orthogonalLoop=1;jettySize=auto;html=1;startArrow=none;startFill=0;endArrow=classic;endFill=1;strokeColor=#000000;strokeWidth=1;" parent="gj7Lqz_uDxO7MRF6QAoS-6" source="DeSNE2LEJQVDBhBTEOND-29" target="DeSNE2LEJQVDBhBTEOND-34" edge="1">
          <mxGeometry relative="1" as="geometry" />
        </mxCell>
        <mxCell id="DeSNE2LEJQVDBhBTEOND-38" style="edgeStyle=orthogonalEdgeStyle;rounded=0;jumpStyle=arc;jumpSize=13;orthogonalLoop=1;jettySize=auto;html=1;startArrow=none;startFill=0;endArrow=classic;endFill=1;strokeColor=#000000;strokeWidth=1;" parent="gj7Lqz_uDxO7MRF6QAoS-6" source="DeSNE2LEJQVDBhBTEOND-29" target="DeSNE2LEJQVDBhBTEOND-37" edge="1">
          <mxGeometry relative="1" as="geometry">
            <Array as="points">
              <mxPoint x="1430" y="40" />
              <mxPoint x="1430" y="40" />
            </Array>
          </mxGeometry>
        </mxCell>
        <mxCell id="EmSBrX0S-aGNU-jhx5ky-1" value="Reminder already sent" style="edgeLabel;html=1;align=center;verticalAlign=middle;resizable=0;points=[];" parent="DeSNE2LEJQVDBhBTEOND-38" vertex="1" connectable="0">
          <mxGeometry x="-0.625" y="1" relative="1" as="geometry">
            <mxPoint x="91" y="-9" as="offset" />
          </mxGeometry>
        </mxCell>
        <mxCell id="DeSNE2LEJQVDBhBTEOND-29" value="" style="shape=mxgraph.bpmn.gateway2;html=1;verticalLabelPosition=bottom;labelBackgroundColor=#ffffff;verticalAlign=top;align=center;perimeter=rhombusPerimeter;outlineConnect=0;outline=none;symbol=none;gwType=exclusive;fillColor=#FFFFFF;" parent="gj7Lqz_uDxO7MRF6QAoS-6" vertex="1">
          <mxGeometry x="1355" y="24" width="40" height="35" as="geometry" />
        </mxCell>
        <mxCell id="DeSNE2LEJQVDBhBTEOND-36" style="edgeStyle=orthogonalEdgeStyle;rounded=0;jumpStyle=arc;jumpSize=13;orthogonalLoop=1;jettySize=auto;html=1;startArrow=none;startFill=0;endArrow=classic;endFill=1;strokeColor=#000000;strokeWidth=1;" parent="gj7Lqz_uDxO7MRF6QAoS-6" source="DeSNE2LEJQVDBhBTEOND-34" target="DeSNE2LEJQVDBhBTEOND-26" edge="1">
          <mxGeometry relative="1" as="geometry">
            <Array as="points">
              <mxPoint x="1450" y="115" />
              <mxPoint x="1450" y="10" />
              <mxPoint x="1175" y="10" />
            </Array>
          </mxGeometry>
        </mxCell>
        <mxCell id="DeSNE2LEJQVDBhBTEOND-34" value="Send reminder" style="shape=mxgraph.bpmn.task;rectStyle=rounded;size=10;taskMarker=send;labelBackgroundColor=none;fillColor=#FFFFFF;" parent="gj7Lqz_uDxO7MRF6QAoS-6" vertex="1">
          <mxGeometry x="1330" y="85" width="90" height="60" as="geometry" />
        </mxCell>
        <mxCell id="DeSNE2LEJQVDBhBTEOND-37" value="Initiate legal &#xa;proceedings" style="shape=mxgraph.bpmn.task;rectStyle=rounded;size=10;taskMarker=abstract;bpmnShapeType=subprocess;isLoopSub=1;outline=eventInt;symbol=escalation;labelBackgroundColor=none;fillColor=#FFFFFF;" parent="gj7Lqz_uDxO7MRF6QAoS-6" vertex="1">
          <mxGeometry x="1580" y="10" width="110" height="70" as="geometry" />
        </mxCell>
        <mxCell id="DeSNE2LEJQVDBhBTEOND-39" value="" style="shape=mxgraph.bpmn.event;html=1;verticalLabelPosition=bottom;labelBackgroundColor=#ffffff;verticalAlign=top;align=center;perimeter=ellipsePerimeter;outlineConnect=0;aspect=fixed;outline=end;symbol=terminate;fillColor=#FFFFFF;" parent="gj7Lqz_uDxO7MRF6QAoS-6" vertex="1">
          <mxGeometry x="1720" y="25" width="30" height="30" as="geometry" />
        </mxCell>
        <mxCell id="DeSNE2LEJQVDBhBTEOND-40" value="" style="edgeStyle=orthogonalEdgeStyle;rounded=0;jumpStyle=arc;jumpSize=13;orthogonalLoop=1;jettySize=auto;html=1;startArrow=none;startFill=0;endArrow=classic;endFill=1;strokeColor=#000000;strokeWidth=1;" parent="gj7Lqz_uDxO7MRF6QAoS-6" source="DeSNE2LEJQVDBhBTEOND-37" target="DeSNE2LEJQVDBhBTEOND-39" edge="1">
          <mxGeometry relative="1" as="geometry">
            <Array as="points">
              <mxPoint x="1700" y="40" />
              <mxPoint x="1700" y="40" />
            </Array>
          </mxGeometry>
        </mxCell>
        <mxCell id="gj7Lqz_uDxO7MRF6QAoS-7" value="Warehouse" style="swimlane;html=1;startSize=20;horizontal=0;fillColor=#d5e8d4;strokeColor=#688F51;" parent="gj7Lqz_uDxO7MRF6QAoS-5" vertex="1">
          <mxGeometry x="20" y="160" width="1790" height="180" as="geometry" />
        </mxCell>
        <mxCell id="gj7Lqz_uDxO7MRF6QAoS-17" value="Pack items" style="shape=mxgraph.bpmn.task;rectStyle=rounded;size=10;taskMarker=manual;" parent="gj7Lqz_uDxO7MRF6QAoS-7" vertex="1">
          <mxGeometry x="460" y="67.5" width="110" height="80" as="geometry" />
        </mxCell>
        <mxCell id="gj7Lqz_uDxO7MRF6QAoS-19" value="All items?" style="shape=mxgraph.bpmn.gateway2;html=1;verticalLabelPosition=top;labelBackgroundColor=#ffffff;verticalAlign=bottom;align=center;perimeter=rhombusPerimeter;outlineConnect=0;outline=eventInt;symbol=error;labelPosition=center;" parent="gj7Lqz_uDxO7MRF6QAoS-7" vertex="1">
          <mxGeometry x="680" y="80" width="50" height="55" as="geometry" />
        </mxCell>
        <mxCell id="gj7Lqz_uDxO7MRF6QAoS-20" value="" style="edgeStyle=orthogonalEdgeStyle;rounded=0;orthogonalLoop=1;jettySize=auto;html=1;" parent="gj7Lqz_uDxO7MRF6QAoS-7" source="gj7Lqz_uDxO7MRF6QAoS-17" target="gj7Lqz_uDxO7MRF6QAoS-19" edge="1">
          <mxGeometry relative="1" as="geometry" />
        </mxCell>
        <mxCell id="gj7Lqz_uDxO7MRF6QAoS-21" value="Send parcel" style="shape=mxgraph.bpmn.task;rectStyle=rounded;size=10;taskMarker=manual;" parent="gj7Lqz_uDxO7MRF6QAoS-7" vertex="1">
          <mxGeometry x="900" y="90" width="110" height="70" as="geometry" />
        </mxCell>
        <mxCell id="gj7Lqz_uDxO7MRF6QAoS-22" value="" style="edgeStyle=orthogonalEdgeStyle;rounded=0;orthogonalLoop=1;jettySize=auto;html=1;startArrow=none;" parent="gj7Lqz_uDxO7MRF6QAoS-7" source="G3vWXNh6A1pPj3LREwGl-22" target="gj7Lqz_uDxO7MRF6QAoS-21" edge="1">
          <mxGeometry relative="1" as="geometry">
            <Array as="points">
              <mxPoint x="845" y="130" />
            </Array>
          </mxGeometry>
        </mxCell>
        <mxCell id="Llef_BaN1A0aLWC5Fdf0-8" value="Update &#xa;inventory" style="shape=mxgraph.bpmn.task;rectStyle=rounded;size=10;taskMarker=manual;labelBackgroundColor=#ffffff;" parent="gj7Lqz_uDxO7MRF6QAoS-7" vertex="1">
          <mxGeometry x="900" y="10" width="110" height="70" as="geometry" />
        </mxCell>
        <mxCell id="G3vWXNh6A1pPj3LREwGl-26" style="edgeStyle=orthogonalEdgeStyle;rounded=0;orthogonalLoop=1;jettySize=auto;html=1;startArrow=none;startFill=0;endArrow=classic;endFill=1;strokeColor=#000000;strokeWidth=1;" parent="gj7Lqz_uDxO7MRF6QAoS-7" source="G3vWXNh6A1pPj3LREwGl-22" target="Llef_BaN1A0aLWC5Fdf0-8" edge="1">
          <mxGeometry relative="1" as="geometry">
            <Array as="points">
              <mxPoint x="845" y="50" />
            </Array>
          </mxGeometry>
        </mxCell>
        <mxCell id="G3vWXNh6A1pPj3LREwGl-22" value="" style="shape=mxgraph.bpmn.gateway2;html=1;verticalLabelPosition=bottom;labelBackgroundColor=#ffffff;verticalAlign=top;align=center;perimeter=rhombusPerimeter;outlineConnect=0;outline=none;symbol=none;gwType=parallel;fillColor=#E6E6E6;" parent="gj7Lqz_uDxO7MRF6QAoS-7" vertex="1">
          <mxGeometry x="820" y="80" width="50" height="55" as="geometry" />
        </mxCell>
        <mxCell id="G3vWXNh6A1pPj3LREwGl-23" value="" style="edgeStyle=orthogonalEdgeStyle;rounded=0;orthogonalLoop=1;jettySize=auto;html=1;endArrow=none;" parent="gj7Lqz_uDxO7MRF6QAoS-7" source="gj7Lqz_uDxO7MRF6QAoS-19" target="G3vWXNh6A1pPj3LREwGl-22" edge="1">
          <mxGeometry relative="1" as="geometry">
            <mxPoint x="400" y="430" as="sourcePoint" />
            <mxPoint x="570" y="430" as="targetPoint" />
          </mxGeometry>
        </mxCell>
        <mxCell id="G3vWXNh6A1pPj3LREwGl-24" value="Order complete" style="edgeLabel;html=1;align=center;verticalAlign=middle;resizable=0;points=[];" parent="G3vWXNh6A1pPj3LREwGl-23" vertex="1" connectable="0">
          <mxGeometry x="-0.36" y="-2" relative="1" as="geometry">
            <mxPoint x="15" y="-12" as="offset" />
          </mxGeometry>
        </mxCell>
        <mxCell id="gj7Lqz_uDxO7MRF6QAoS-8" value="Purchasing" style="swimlane;html=1;startSize=20;horizontal=0;fillColor=#ffe6cc;strokeColor=#AB7B00;" parent="gj7Lqz_uDxO7MRF6QAoS-5" vertex="1">
          <mxGeometry x="20" y="340" width="1790" height="180" as="geometry" />
        </mxCell>
        <UserObject label="" link="data:page/id,HCq9DOm8jIu3lRLJQ98l" id="gj7Lqz_uDxO7MRF6QAoS-30">
          <mxCell style="group" parent="gj7Lqz_uDxO7MRF6QAoS-8" vertex="1" connectable="0">
            <mxGeometry x="257" y="20" width="140" height="100" as="geometry" />
          </mxCell>
        </UserObject>
        <mxCell id="gj7Lqz_uDxO7MRF6QAoS-27" value="Procure items&#xa;from suppliers&#xa;" style="shape=mxgraph.bpmn.task;rectStyle=rounded;size=10;taskMarker=abstract;isLoopSub=1;" parent="gj7Lqz_uDxO7MRF6QAoS-30" vertex="1">
          <mxGeometry width="134.4" height="88.88888888888889" as="geometry" />
        </mxCell>
        <mxCell id="gj7Lqz_uDxO7MRF6QAoS-29" value="" style="shape=mxgraph.bpmn.event;html=1;verticalLabelPosition=bottom;labelBackgroundColor=#ffffff;verticalAlign=top;align=center;perimeter=ellipsePerimeter;outlineConnect=0;aspect=fixed;outline=boundInt;symbol=error;" parent="gj7Lqz_uDxO7MRF6QAoS-30" vertex="1">
          <mxGeometry x="84.6" y="60" width="38.97" height="38.97" as="geometry" />
        </mxCell>
        <mxCell id="gj7Lqz_uDxO7MRF6QAoS-28" value="" style="shape=mxgraph.bpmn.event;html=1;verticalLabelPosition=bottom;labelBackgroundColor=#ffffff;verticalAlign=top;align=center;perimeter=ellipsePerimeter;outlineConnect=0;aspect=fixed;outline=boundNonint;symbol=escalation;" parent="gj7Lqz_uDxO7MRF6QAoS-30" vertex="1">
          <mxGeometry x="14.2" y="60" width="38.97" height="38.97" as="geometry" />
        </mxCell>
        <mxCell id="gj7Lqz_uDxO7MRF6QAoS-31" value="Inform client" style="shape=mxgraph.bpmn.task;rectStyle=rounded;size=10;taskMarker=send;" parent="gj7Lqz_uDxO7MRF6QAoS-8" vertex="1">
          <mxGeometry x="670" y="10" width="120" height="80" as="geometry" />
        </mxCell>
        <mxCell id="gj7Lqz_uDxO7MRF6QAoS-32" style="edgeStyle=orthogonalEdgeStyle;rounded=0;orthogonalLoop=1;jettySize=auto;html=1;" parent="gj7Lqz_uDxO7MRF6QAoS-8" source="gj7Lqz_uDxO7MRF6QAoS-28" target="gj7Lqz_uDxO7MRF6QAoS-31" edge="1">
          <mxGeometry relative="1" as="geometry">
            <Array as="points">
              <mxPoint x="290" y="150" />
              <mxPoint x="620" y="150" />
              <mxPoint x="620" y="50" />
            </Array>
          </mxGeometry>
        </mxCell>
        <mxCell id="gj7Lqz_uDxO7MRF6QAoS-33" value="Delivery delayed" style="edgeLabel;html=1;align=center;verticalAlign=middle;resizable=0;points=[];" parent="gj7Lqz_uDxO7MRF6QAoS-32" vertex="1" connectable="0">
          <mxGeometry x="-0.5263" relative="1" as="geometry">
            <mxPoint x="-36" y="10" as="offset" />
          </mxGeometry>
        </mxCell>
        <mxCell id="gj7Lqz_uDxO7MRF6QAoS-37" style="edgeStyle=orthogonalEdgeStyle;rounded=0;orthogonalLoop=1;jettySize=auto;html=1;" parent="gj7Lqz_uDxO7MRF6QAoS-8" source="gj7Lqz_uDxO7MRF6QAoS-35" target="gj7Lqz_uDxO7MRF6QAoS-31" edge="1">
          <mxGeometry relative="1" as="geometry" />
        </mxCell>
        <mxCell id="gj7Lqz_uDxO7MRF6QAoS-35" value="Update &#xa;product list and&#xa; inventory" style="shape=mxgraph.bpmn.task;rectStyle=rounded;size=10;taskMarker=manual;" parent="gj7Lqz_uDxO7MRF6QAoS-8" vertex="1">
          <mxGeometry x="470" y="10" width="110" height="80" as="geometry" />
        </mxCell>
        <mxCell id="gj7Lqz_uDxO7MRF6QAoS-36" value="" style="edgeStyle=orthogonalEdgeStyle;rounded=0;orthogonalLoop=1;jettySize=auto;html=1;" parent="gj7Lqz_uDxO7MRF6QAoS-8" source="gj7Lqz_uDxO7MRF6QAoS-29" target="gj7Lqz_uDxO7MRF6QAoS-35" edge="1">
          <mxGeometry relative="1" as="geometry">
            <Array as="points">
              <mxPoint x="360" y="130" />
              <mxPoint x="540" y="130" />
            </Array>
          </mxGeometry>
        </mxCell>
        <mxCell id="gj7Lqz_uDxO7MRF6QAoS-38" value="Item not available" style="edgeLabel;html=1;align=center;verticalAlign=middle;resizable=0;points=[];" parent="gj7Lqz_uDxO7MRF6QAoS-36" vertex="1" connectable="0">
          <mxGeometry x="-0.6372" relative="1" as="geometry">
            <mxPoint x="48" y="-10" as="offset" />
          </mxGeometry>
        </mxCell>
        <mxCell id="gj7Lqz_uDxO7MRF6QAoS-18" value="" style="edgeStyle=orthogonalEdgeStyle;rounded=0;orthogonalLoop=1;jettySize=auto;html=1;" parent="gj7Lqz_uDxO7MRF6QAoS-5" source="gj7Lqz_uDxO7MRF6QAoS-15" target="gj7Lqz_uDxO7MRF6QAoS-17" edge="1">
          <mxGeometry relative="1" as="geometry" />
        </mxCell>
        <mxCell id="gj7Lqz_uDxO7MRF6QAoS-24" value="In stock" style="edgeLabel;html=1;align=center;verticalAlign=middle;resizable=0;points=[];" parent="gj7Lqz_uDxO7MRF6QAoS-18" vertex="1" connectable="0">
          <mxGeometry x="-0.1385" y="1" relative="1" as="geometry">
            <mxPoint x="-114" y="-13" as="offset" />
          </mxGeometry>
        </mxCell>
        <mxCell id="gj7Lqz_uDxO7MRF6QAoS-26" style="edgeStyle=orthogonalEdgeStyle;rounded=0;orthogonalLoop=1;jettySize=auto;html=1;" parent="gj7Lqz_uDxO7MRF6QAoS-5" source="gj7Lqz_uDxO7MRF6QAoS-15" target="gj7Lqz_uDxO7MRF6QAoS-27" edge="1">
          <mxGeometry relative="1" as="geometry">
            <mxPoint x="360" y="280" as="targetPoint" />
          </mxGeometry>
        </mxCell>
        <mxCell id="DeSNE2LEJQVDBhBTEOND-1" value="Items not &lt;br&gt;in inventory" style="edgeLabel;html=1;align=center;verticalAlign=middle;resizable=0;points=[];" parent="gj7Lqz_uDxO7MRF6QAoS-26" vertex="1" connectable="0">
          <mxGeometry x="-0.752" y="1" relative="1" as="geometry">
            <mxPoint as="offset" />
          </mxGeometry>
        </mxCell>
        <mxCell id="gj7Lqz_uDxO7MRF6QAoS-34" style="edgeStyle=orthogonalEdgeStyle;rounded=0;orthogonalLoop=1;jettySize=auto;html=1;" parent="gj7Lqz_uDxO7MRF6QAoS-5" source="gj7Lqz_uDxO7MRF6QAoS-27" target="gj7Lqz_uDxO7MRF6QAoS-17" edge="1">
          <mxGeometry relative="1" as="geometry">
            <Array as="points">
              <mxPoint x="460" y="400" />
              <mxPoint x="460" y="270" />
            </Array>
          </mxGeometry>
        </mxCell>
        <mxCell id="Llef_BaN1A0aLWC5Fdf0-6" style="edgeStyle=orthogonalEdgeStyle;rounded=0;orthogonalLoop=1;jettySize=auto;html=1;jumpStyle=arc;jumpSize=13;" parent="gj7Lqz_uDxO7MRF6QAoS-5" source="gj7Lqz_uDxO7MRF6QAoS-19" target="gj7Lqz_uDxO7MRF6QAoS-27" edge="1">
          <mxGeometry relative="1" as="geometry">
            <Array as="points">
              <mxPoint x="725" y="330" />
              <mxPoint x="345" y="330" />
            </Array>
          </mxGeometry>
        </mxCell>
        <mxCell id="Llef_BaN1A0aLWC5Fdf0-7" value="Missing items" style="edgeLabel;html=1;align=center;verticalAlign=middle;resizable=0;points=[];" parent="Llef_BaN1A0aLWC5Fdf0-6" vertex="1" connectable="0">
          <mxGeometry x="-0.9387" relative="1" as="geometry">
            <mxPoint y="-1" as="offset" />
          </mxGeometry>
        </mxCell>
        <mxCell id="G3vWXNh6A1pPj3LREwGl-27" style="edgeStyle=orthogonalEdgeStyle;rounded=0;orthogonalLoop=1;jettySize=auto;html=1;startArrow=none;startFill=0;endArrow=classic;endFill=1;strokeColor=#000000;strokeWidth=1;" parent="gj7Lqz_uDxO7MRF6QAoS-5" source="gj7Lqz_uDxO7MRF6QAoS-21" target="G3vWXNh6A1pPj3LREwGl-1" edge="1">
          <mxGeometry relative="1" as="geometry">
            <Array as="points">
              <mxPoint x="1040" y="290" />
              <mxPoint x="1040" y="40" />
            </Array>
          </mxGeometry>
        </mxCell>
        <mxCell id="DeSNE2LEJQVDBhBTEOND-7" style="edgeStyle=orthogonalEdgeStyle;rounded=0;orthogonalLoop=1;jettySize=auto;html=1;startArrow=none;startFill=0;endArrow=classic;endFill=1;strokeColor=#000000;strokeWidth=1;" parent="gj7Lqz_uDxO7MRF6QAoS-5" source="Llef_BaN1A0aLWC5Fdf0-8" target="G3vWXNh6A1pPj3LREwGl-1" edge="1">
          <mxGeometry relative="1" as="geometry">
            <Array as="points">
              <mxPoint x="1040" y="210" />
              <mxPoint x="1040" y="40" />
            </Array>
          </mxGeometry>
        </mxCell>
        <mxCell id="Llef_BaN1A0aLWC5Fdf0-2" value="Client" style="swimlane;html=1;childLayout=stackLayout;resizeParent=1;resizeParentMax=0;horizontal=0;startSize=20;horizontalStack=0;labelBackgroundColor=none;fillColor=#f8cecc;strokeColor=#944440;swimlaneFillColor=none;" parent="1" vertex="1">
          <mxGeometry x="-370" y="850" width="1800" height="70" as="geometry" />
        </mxCell>
        <mxCell id="Llef_BaN1A0aLWC5Fdf0-3" value="" style="swimlane;html=1;startSize=20;horizontal=0;fillColor=#f8cecc;strokeColor=#944440;" parent="Llef_BaN1A0aLWC5Fdf0-2" vertex="1">
          <mxGeometry x="20" width="1780" height="70" as="geometry" />
        </mxCell>
        <mxCell id="G3vWXNh6A1pPj3LREwGl-5" value="" style="endArrow=blockThin;html=1;labelPosition=left;verticalLabelPosition=middle;align=right;verticalAlign=middle;dashed=1;endFill=0;startArrow=oval;startFill=0;endSize=6;startSize=4;dashPattern=8 4;rounded=1;edgeStyle=orthogonalEdgeStyle;strokeWidth=1;" parent="1" source="Llef_BaN1A0aLWC5Fdf0-2" target="gj7Lqz_uDxO7MRF6QAoS-11" edge="1">
          <mxGeometry relative="1" as="geometry">
            <mxPoint x="-265" y="690" as="sourcePoint" />
            <mxPoint x="180" y="520" as="targetPoint" />
            <Array as="points">
              <mxPoint x="-265" y="630" />
              <mxPoint x="-265" y="630" />
            </Array>
          </mxGeometry>
        </mxCell>
        <mxCell id="G3vWXNh6A1pPj3LREwGl-6" value="Order" style="shape=message;html=1;outlineConnect=0;labelPosition=center;verticalLabelPosition=bottom;align=center;verticalAlign=top;spacingRight=5;labelBackgroundColor=#ffffff;" parent="G3vWXNh6A1pPj3LREwGl-5" vertex="1">
          <mxGeometry width="40" height="26" relative="1" as="geometry">
            <mxPoint x="-20" y="200" as="offset" />
          </mxGeometry>
        </mxCell>
        <mxCell id="G3vWXNh6A1pPj3LREwGl-12" value="" style="endArrow=blockThin;html=1;labelPosition=left;verticalLabelPosition=middle;align=right;verticalAlign=middle;dashed=1;dashPattern=8 4;endFill=0;startArrow=oval;startFill=0;endSize=6;startSize=4;rounded=1;edgeStyle=orthogonalEdgeStyle;strokeWidth=1;" parent="1" source="gj7Lqz_uDxO7MRF6QAoS-21" target="Llef_BaN1A0aLWC5Fdf0-2" edge="1">
          <mxGeometry relative="1" as="geometry">
            <mxPoint x="450" y="520" as="sourcePoint" />
            <mxPoint x="515" y="690" as="targetPoint" />
            <Array as="points">
              <mxPoint x="610" y="530" />
              <mxPoint x="610" y="530" />
            </Array>
          </mxGeometry>
        </mxCell>
        <mxCell id="G3vWXNh6A1pPj3LREwGl-13" value="Items" style="shape=message;html=1;outlineConnect=0;labelPosition=center;verticalLabelPosition=bottom;align=center;verticalAlign=top;spacingRight=5;labelBackgroundColor=#ffffff;" parent="G3vWXNh6A1pPj3LREwGl-12" vertex="1">
          <mxGeometry width="40" height="26" relative="1" as="geometry">
            <mxPoint x="-19" y="81" as="offset" />
          </mxGeometry>
        </mxCell>
        <mxCell id="G3vWXNh6A1pPj3LREwGl-14" value="" style="endArrow=blockThin;html=1;labelPosition=left;verticalLabelPosition=middle;align=right;verticalAlign=middle;dashed=1;dashPattern=8 4;endFill=0;startArrow=oval;startFill=0;endSize=6;startSize=4;rounded=1;edgeStyle=orthogonalEdgeStyle;strokeWidth=1;" parent="1" source="G3vWXNh6A1pPj3LREwGl-1" target="Llef_BaN1A0aLWC5Fdf0-2" edge="1">
          <mxGeometry relative="1" as="geometry">
            <mxPoint x="790" y="328" as="sourcePoint" />
            <mxPoint x="790" y="690" as="targetPoint" />
            <Array as="points">
              <mxPoint x="740" y="580" />
              <mxPoint x="740" y="580" />
            </Array>
          </mxGeometry>
        </mxCell>
        <mxCell id="G3vWXNh6A1pPj3LREwGl-15" value="Invoice" style="shape=message;html=1;outlineConnect=0;labelPosition=center;verticalLabelPosition=bottom;align=center;verticalAlign=top;spacingRight=5;labelBackgroundColor=#ffffff;" parent="G3vWXNh6A1pPj3LREwGl-14" vertex="1">
          <mxGeometry width="40" height="26" relative="1" as="geometry">
            <mxPoint x="-20" y="206" as="offset" />
          </mxGeometry>
        </mxCell>
        <mxCell id="G3vWXNh6A1pPj3LREwGl-16" value="Inventory &#xa;management &#xa;system" style="swimlane;startSize=70;horizontal=0;labelBackgroundColor=none;strokeColor=#666666;fontColor=#333333;swimlaneFillColor=#E6E6E6;fillColor=#E6E6E6;" parent="1" vertex="1">
          <mxGeometry x="-200" y="100" width="840" height="120" as="geometry" />
        </mxCell>
        <mxCell id="G3vWXNh6A1pPj3LREwGl-19" value="" style="edgeStyle=elbowEdgeStyle;fontSize=12;html=1;endFill=0;startFill=0;endSize=6;startSize=6;dashed=1;dashPattern=1 4;endArrow=none;startArrow=none;strokeWidth=2;" parent="1" source="gj7Lqz_uDxO7MRF6QAoS-13" target="G3vWXNh6A1pPj3LREwGl-16" edge="1">
          <mxGeometry width="160" relative="1" as="geometry">
            <mxPoint x="90" y="520" as="sourcePoint" />
            <mxPoint x="250" y="520" as="targetPoint" />
          </mxGeometry>
        </mxCell>
        <mxCell id="G3vWXNh6A1pPj3LREwGl-20" value="" style="edgeStyle=elbowEdgeStyle;fontSize=12;html=1;endFill=0;startFill=0;endSize=6;startSize=6;dashed=1;dashPattern=1 4;endArrow=none;startArrow=none;strokeWidth=2;" parent="1" source="Llef_BaN1A0aLWC5Fdf0-8" target="G3vWXNh6A1pPj3LREwGl-16" edge="1">
          <mxGeometry width="160" relative="1" as="geometry">
            <mxPoint x="90" y="520" as="sourcePoint" />
            <mxPoint x="250" y="520" as="targetPoint" />
          </mxGeometry>
        </mxCell>
        <mxCell id="G3vWXNh6A1pPj3LREwGl-7" value="" style="endArrow=blockThin;html=1;labelPosition=left;verticalLabelPosition=middle;align=right;verticalAlign=middle;dashed=1;endFill=0;startArrow=oval;startFill=0;endSize=6;startSize=4;dashPattern=8 4;rounded=1;edgeStyle=orthogonalEdgeStyle;strokeWidth=1;" parent="1" source="gj7Lqz_uDxO7MRF6QAoS-31" target="Llef_BaN1A0aLWC5Fdf0-2" edge="1">
          <mxGeometry relative="1" as="geometry">
            <mxPoint x="399.9999999999999" y="630" as="sourcePoint" />
            <mxPoint x="400" y="750" as="targetPoint" />
            <Array as="points">
              <mxPoint x="365" y="700" />
              <mxPoint x="365" y="700" />
            </Array>
          </mxGeometry>
        </mxCell>
        <mxCell id="G3vWXNh6A1pPj3LREwGl-8" value="Message" style="shape=message;html=1;outlineConnect=0;labelPosition=center;verticalLabelPosition=bottom;align=center;verticalAlign=top;spacingRight=5;labelBackgroundColor=#ffffff;" parent="G3vWXNh6A1pPj3LREwGl-7" vertex="1">
          <mxGeometry width="40" height="26" relative="1" as="geometry">
            <mxPoint x="-20" y="25" as="offset" />
          </mxGeometry>
        </mxCell>
        <mxCell id="DeSNE2LEJQVDBhBTEOND-11" value="" style="endArrow=blockThin;html=1;labelPosition=left;verticalLabelPosition=middle;align=right;verticalAlign=middle;dashed=1;dashPattern=8 4;endFill=0;startArrow=oval;startFill=0;endSize=6;startSize=4;strokeColor=#000000;strokeWidth=1;edgeStyle=orthogonalEdgeStyle;" parent="1" source="Llef_BaN1A0aLWC5Fdf0-2" target="DeSNE2LEJQVDBhBTEOND-26" edge="1">
          <mxGeometry relative="1" as="geometry">
            <mxPoint x="40" y="840" as="sourcePoint" />
            <mxPoint x="690" y="520" as="targetPoint" />
            <Array as="points">
              <mxPoint x="825" y="550" />
              <mxPoint x="825" y="550" />
            </Array>
          </mxGeometry>
        </mxCell>
        <mxCell id="DeSNE2LEJQVDBhBTEOND-12" value="Payment" style="shape=message;html=1;outlineConnect=0;labelPosition=center;verticalLabelPosition=bottom;align=center;verticalAlign=top;spacingRight=5;labelBackgroundColor=#ffffff;" parent="DeSNE2LEJQVDBhBTEOND-11" vertex="1">
          <mxGeometry width="40" height="26" relative="1" as="geometry">
            <mxPoint x="-21" y="214" as="offset" />
          </mxGeometry>
        </mxCell>
        <mxCell id="DeSNE2LEJQVDBhBTEOND-20" value="" style="endArrow=blockThin;html=1;labelPosition=left;verticalLabelPosition=middle;align=right;verticalAlign=middle;dashed=1;dashPattern=8 4;endFill=0;startArrow=oval;startFill=0;endSize=6;startSize=4;strokeColor=#000000;strokeWidth=1;edgeStyle=orthogonalEdgeStyle;" parent="1" source="DeSNE2LEJQVDBhBTEOND-13" target="Llef_BaN1A0aLWC5Fdf0-2" edge="1">
          <mxGeometry relative="1" as="geometry">
            <mxPoint x="840" y="520" as="sourcePoint" />
            <mxPoint x="330" y="850" as="targetPoint" />
            <Array as="points">
              <mxPoint x="895" y="610" />
              <mxPoint x="895" y="610" />
            </Array>
          </mxGeometry>
        </mxCell>
        <mxCell id="DeSNE2LEJQVDBhBTEOND-21" value="Receipt" style="shape=message;html=1;outlineConnect=0;labelPosition=center;verticalLabelPosition=bottom;align=center;verticalAlign=top;spacingRight=5;labelBackgroundColor=#ffffff;fillColor=#C0C0C0;" parent="DeSNE2LEJQVDBhBTEOND-20" vertex="1">
          <mxGeometry width="40" height="26" relative="1" as="geometry">
            <mxPoint x="-20" y="168" as="offset" />
          </mxGeometry>
        </mxCell>
        <mxCell id="DeSNE2LEJQVDBhBTEOND-24" value="" style="endArrow=blockThin;html=1;labelPosition=left;verticalLabelPosition=middle;align=right;verticalAlign=middle;dashed=1;dashPattern=8 4;endFill=0;startArrow=oval;startFill=0;endSize=6;startSize=4;strokeColor=#000000;strokeWidth=1;edgeStyle=orthogonalEdgeStyle;" parent="1" source="DeSNE2LEJQVDBhBTEOND-34" target="Llef_BaN1A0aLWC5Fdf0-2" edge="1">
          <mxGeometry relative="1" as="geometry">
            <mxPoint x="1135" y="320" as="sourcePoint" />
            <mxPoint x="890" y="520" as="targetPoint" />
            <Array as="points">
              <mxPoint x="1025" y="400" />
              <mxPoint x="1025" y="400" />
            </Array>
          </mxGeometry>
        </mxCell>
        <mxCell id="DeSNE2LEJQVDBhBTEOND-25" value="Reminder" style="shape=message;html=1;outlineConnect=0;labelPosition=center;verticalLabelPosition=bottom;align=center;verticalAlign=top;spacingRight=5;labelBackgroundColor=#ffffff;" parent="DeSNE2LEJQVDBhBTEOND-24" vertex="1">
          <mxGeometry width="40" height="26" relative="1" as="geometry">
            <mxPoint x="-19" y="168" as="offset" />
          </mxGeometry>
        </mxCell>
      </root>
    </mxGraphModel>
  </diagram>
  <diagram id="HCq9DOm8jIu3lRLJQ98l" name="Purchase stock">
    <mxGraphModel dx="2230" dy="1533" grid="1" gridSize="10" guides="1" tooltips="1" connect="1" arrows="1" fold="1" page="0" pageScale="1" pageWidth="827" pageHeight="1169" math="0" shadow="0">
      <root>
        <mxCell id="VR5IMITfkwXBvMDUpB2b-0" />
        <mxCell id="VR5IMITfkwXBvMDUpB2b-1" parent="VR5IMITfkwXBvMDUpB2b-0" />
        <mxCell id="OpYRb17qw4wrMRBJx0gq-3" style="edgeStyle=orthogonalEdgeStyle;rounded=0;orthogonalLoop=1;jettySize=auto;html=1;" edge="1" parent="VR5IMITfkwXBvMDUpB2b-1" source="EpqYW-o16c6DaKRRVxr--0" target="EpqYW-o16c6DaKRRVxr--2">
          <mxGeometry relative="1" as="geometry">
            <Array as="points">
              <mxPoint x="-20" y="-60" />
              <mxPoint x="-20" y="-10" />
            </Array>
          </mxGeometry>
        </mxCell>
        <mxCell id="EpqYW-o16c6DaKRRVxr--0" value="&lt;div&gt;Items in stock &lt;br&gt;&lt;/div&gt;&lt;div&gt;below minimum number&lt;/div&gt;" style="shape=mxgraph.bpmn.event;html=1;verticalLabelPosition=bottom;labelBackgroundColor=#ffffff;verticalAlign=top;align=center;perimeter=ellipsePerimeter;outlineConnect=0;aspect=fixed;outline=standard;symbol=conditional;" vertex="1" parent="VR5IMITfkwXBvMDUpB2b-1">
          <mxGeometry x="-120" y="-80" width="40" height="40" as="geometry" />
        </mxCell>
        <mxCell id="OpYRb17qw4wrMRBJx0gq-2" style="edgeStyle=orthogonalEdgeStyle;rounded=0;orthogonalLoop=1;jettySize=auto;html=1;" edge="1" parent="VR5IMITfkwXBvMDUpB2b-1" source="EpqYW-o16c6DaKRRVxr--1" target="EpqYW-o16c6DaKRRVxr--2">
          <mxGeometry relative="1" as="geometry">
            <Array as="points">
              <mxPoint x="-20" y="60" />
              <mxPoint x="-20" y="20" />
            </Array>
          </mxGeometry>
        </mxCell>
        <UserObject label="" link="data:page/id,C22Zyo9x9_IkmYV2H3KQ" id="EpqYW-o16c6DaKRRVxr--1">
          <mxCell style="shape=mxgraph.bpmn.event;html=1;verticalLabelPosition=bottom;labelBackgroundColor=#ffffff;verticalAlign=top;align=center;perimeter=ellipsePerimeter;outlineConnect=0;aspect=fixed;outline=standard;symbol=general;" vertex="1" parent="VR5IMITfkwXBvMDUpB2b-1">
            <mxGeometry x="-120" y="40" width="40" height="40" as="geometry" />
          </mxCell>
        </UserObject>
        <mxCell id="EpqYW-o16c6DaKRRVxr--2" value="Check if available &#xa;from suppliers&#xa;" style="shape=mxgraph.bpmn.task;rectStyle=rounded;size=10;taskMarker=abstract;isLoopStandard=1;fontFamily=Helvetica;fontSize=12;fontColor=#000000;align=center;strokeColor=#000000;fillColor=#ffffff;" vertex="1" parent="VR5IMITfkwXBvMDUpB2b-1">
          <mxGeometry x="40" y="-40" width="120" height="80" as="geometry" />
        </mxCell>
        <mxCell id="EpqYW-o16c6DaKRRVxr--3" value="Available?" style="shape=mxgraph.bpmn.gateway2;html=1;verticalLabelPosition=bottom;labelBackgroundColor=#ffffff;verticalAlign=top;align=center;perimeter=rhombusPerimeter;outlineConnect=0;outline=none;symbol=none;gwType=exclusive;labelBorderColor=none;" vertex="1" parent="VR5IMITfkwXBvMDUpB2b-1">
          <mxGeometry x="220" y="-20" width="40" height="40" as="geometry" />
        </mxCell>
        <mxCell id="EpqYW-o16c6DaKRRVxr--4" value="" style="edgeStyle=orthogonalEdgeStyle;rounded=0;orthogonalLoop=1;jettySize=auto;html=1;" edge="1" parent="VR5IMITfkwXBvMDUpB2b-1" source="EpqYW-o16c6DaKRRVxr--2" target="EpqYW-o16c6DaKRRVxr--3">
          <mxGeometry relative="1" as="geometry" />
        </mxCell>
        <mxCell id="EpqYW-o16c6DaKRRVxr--5" value="Order from supplier" style="shape=mxgraph.bpmn.task;rectStyle=rounded;size=10;taskMarker=abstract;isLoopSub=1;fontFamily=Helvetica;fontSize=12;fontColor=#000000;align=center;strokeColor=#000000;fillColor=#ffffff;" vertex="1" parent="VR5IMITfkwXBvMDUpB2b-1">
          <mxGeometry x="360" y="-120" width="120" height="80" as="geometry" />
        </mxCell>
        <mxCell id="EpqYW-o16c6DaKRRVxr--6" value="" style="edgeStyle=orthogonalEdgeStyle;rounded=0;orthogonalLoop=1;jettySize=auto;html=1;" edge="1" parent="VR5IMITfkwXBvMDUpB2b-1" source="EpqYW-o16c6DaKRRVxr--3" target="EpqYW-o16c6DaKRRVxr--5">
          <mxGeometry relative="1" as="geometry">
            <Array as="points">
              <mxPoint x="240" y="-80" />
            </Array>
          </mxGeometry>
        </mxCell>
        <mxCell id="OpYRb17qw4wrMRBJx0gq-4" value="In stock" style="edgeLabel;html=1;align=center;verticalAlign=middle;resizable=0;points=[];" vertex="1" connectable="0" parent="EpqYW-o16c6DaKRRVxr--6">
          <mxGeometry x="-0.4" y="-2" relative="1" as="geometry">
            <mxPoint x="-2" y="34" as="offset" />
          </mxGeometry>
        </mxCell>
        <mxCell id="Mlp8mXJWqpWX_r7N0x4a-2" style="edgeStyle=orthogonalEdgeStyle;rounded=0;orthogonalLoop=1;jettySize=auto;html=1;" edge="1" parent="VR5IMITfkwXBvMDUpB2b-1" source="Mlp8mXJWqpWX_r7N0x4a-0" target="EpqYW-o16c6DaKRRVxr--5">
          <mxGeometry relative="1" as="geometry">
            <Array as="points">
              <mxPoint x="420" />
            </Array>
          </mxGeometry>
        </mxCell>
        <mxCell id="Mlp8mXJWqpWX_r7N0x4a-0" value="Delivery delayed" style="shape=mxgraph.bpmn.event;html=1;verticalLabelPosition=bottom;labelBackgroundColor=#ffffff;verticalAlign=top;align=center;perimeter=ellipsePerimeter;outlineConnect=0;aspect=fixed;outline=throwing;symbol=escalation;" vertex="1" parent="VR5IMITfkwXBvMDUpB2b-1">
          <mxGeometry x="350" y="-20" width="40" height="40" as="geometry" />
        </mxCell>
        <mxCell id="Mlp8mXJWqpWX_r7N0x4a-1" value="3+ days" style="edgeStyle=orthogonalEdgeStyle;rounded=0;orthogonalLoop=1;jettySize=auto;html=1;" edge="1" parent="VR5IMITfkwXBvMDUpB2b-1" source="EpqYW-o16c6DaKRRVxr--3" target="Mlp8mXJWqpWX_r7N0x4a-0">
          <mxGeometry x="0.1111" y="10" relative="1" as="geometry">
            <mxPoint as="offset" />
          </mxGeometry>
        </mxCell>
        <mxCell id="OpYRb17qw4wrMRBJx0gq-1" style="edgeStyle=orthogonalEdgeStyle;rounded=0;orthogonalLoop=1;jettySize=auto;html=1;startArrow=none;" edge="1" parent="VR5IMITfkwXBvMDUpB2b-1" source="Zl_YAaJtnaELgSoCP4CO-0" target="OpYRb17qw4wrMRBJx0gq-0">
          <mxGeometry relative="1" as="geometry" />
        </mxCell>
        <mxCell id="Mlp8mXJWqpWX_r7N0x4a-3" value="Items received" style="shape=mxgraph.bpmn.event;html=1;verticalLabelPosition=bottom;labelBackgroundColor=#ffffff;verticalAlign=top;align=center;perimeter=ellipsePerimeter;outlineConnect=0;aspect=fixed;outline=boundInt;symbol=message;" vertex="1" parent="VR5IMITfkwXBvMDUpB2b-1">
          <mxGeometry x="530" y="-100" width="40" height="40" as="geometry" />
        </mxCell>
        <mxCell id="Mlp8mXJWqpWX_r7N0x4a-4" value="" style="edgeStyle=orthogonalEdgeStyle;rounded=0;orthogonalLoop=1;jettySize=auto;html=1;" edge="1" parent="VR5IMITfkwXBvMDUpB2b-1" source="EpqYW-o16c6DaKRRVxr--5" target="Mlp8mXJWqpWX_r7N0x4a-3">
          <mxGeometry relative="1" as="geometry" />
        </mxCell>
        <UserObject label="" link="data:page/id,C22Zyo9x9_IkmYV2H3KQ" id="OpYRb17qw4wrMRBJx0gq-0">
          <mxCell style="shape=mxgraph.bpmn.event;html=1;verticalLabelPosition=bottom;labelBackgroundColor=#ffffff;verticalAlign=top;align=center;perimeter=ellipsePerimeter;outlineConnect=0;aspect=fixed;outline=end;symbol=terminate;" vertex="1" parent="VR5IMITfkwXBvMDUpB2b-1">
            <mxGeometry x="790" y="-100" width="40" height="40" as="geometry" />
          </mxCell>
        </UserObject>
        <UserObject label="Not available" link="data:page/id,C22Zyo9x9_IkmYV2H3KQ" id="OpYRb17qw4wrMRBJx0gq-5">
          <mxCell style="shape=mxgraph.bpmn.event;html=1;verticalLabelPosition=bottom;labelBackgroundColor=#ffffff;verticalAlign=top;align=center;perimeter=ellipsePerimeter;outlineConnect=0;aspect=fixed;outline=end;symbol=error;" vertex="1" parent="VR5IMITfkwXBvMDUpB2b-1">
            <mxGeometry x="220" y="90" width="40" height="40" as="geometry" />
          </mxCell>
        </UserObject>
        <mxCell id="OpYRb17qw4wrMRBJx0gq-6" value="" style="edgeStyle=orthogonalEdgeStyle;rounded=0;orthogonalLoop=1;jettySize=auto;html=1;" edge="1" parent="VR5IMITfkwXBvMDUpB2b-1" source="EpqYW-o16c6DaKRRVxr--3" target="OpYRb17qw4wrMRBJx0gq-5">
          <mxGeometry relative="1" as="geometry" />
        </mxCell>
        <mxCell id="Zl_YAaJtnaELgSoCP4CO-0" value="Update inventory" style="shape=mxgraph.bpmn.task;rectStyle=rounded;size=10;taskMarker=manual;labelBackgroundColor=#ffffff;" vertex="1" parent="VR5IMITfkwXBvMDUpB2b-1">
          <mxGeometry x="610" y="-120" width="120" height="80" as="geometry" />
        </mxCell>
        <mxCell id="Zl_YAaJtnaELgSoCP4CO-1" value="" style="edgeStyle=orthogonalEdgeStyle;rounded=0;orthogonalLoop=1;jettySize=auto;html=1;endArrow=none;" edge="1" parent="VR5IMITfkwXBvMDUpB2b-1" source="Mlp8mXJWqpWX_r7N0x4a-3" target="Zl_YAaJtnaELgSoCP4CO-0">
          <mxGeometry relative="1" as="geometry">
            <mxPoint x="570" y="-80" as="sourcePoint" />
            <mxPoint x="800" y="-80" as="targetPoint" />
          </mxGeometry>
        </mxCell>
        <mxCell id="AqVqkzSfWaMEc31fuOZP-21" value="" style="rounded=1;whiteSpace=wrap;html=1;container=1;collapsible=0;absoluteArcSize=1;arcSize=20;childLayout=stackLayout;horizontal=1;horizontalStack=0;resizeParent=1;resizeParentMax=0;resizeLast=0;labelBackgroundColor=none;fillColor=#FFFFFF;" vertex="1" parent="VR5IMITfkwXBvMDUpB2b-1">
          <mxGeometry x="-170" y="410" width="120" height="100" as="geometry" />
        </mxCell>
        <mxCell id="AqVqkzSfWaMEc31fuOZP-22" value="Purchasing" style="html=1;shape=mxgraph.basic.rect;size=10;rectStyle=rounded;bottomRightStyle=square;bottomLeftStyle=square;part=1;" vertex="1" parent="AqVqkzSfWaMEc31fuOZP-21">
          <mxGeometry width="120" height="20" as="geometry" />
        </mxCell>
        <mxCell id="AqVqkzSfWaMEc31fuOZP-23" value="Do you have these &#xa;out-of-stock items?" style="shape=mxgraph.bpmn.task;arcSize=0;taskMarker=abstract;part=1;isLoopMultiSeq=1;" vertex="1" parent="AqVqkzSfWaMEc31fuOZP-21">
          <mxGeometry y="20" width="120" height="60" as="geometry" />
        </mxCell>
        <mxCell id="AqVqkzSfWaMEc31fuOZP-24" value="Suppliers" style="html=1;shape=mxgraph.basic.rect;size=10;rectStyle=rounded;topRightStyle=square;topLeftStyle=square;fillColor=#C0C0C0;part=1;" vertex="1" parent="AqVqkzSfWaMEc31fuOZP-21">
          <mxGeometry y="80" width="120" height="20" as="geometry" />
        </mxCell>
        <mxCell id="AqVqkzSfWaMEc31fuOZP-26" value="Answers" style="shape=message;fillColor=#C0C0C0;labelBackgroundColor=none;align=left;whiteSpace=wrap;html=1;labelPosition=right;verticalLabelPosition=middle;verticalAlign=middle;" vertex="1" parent="VR5IMITfkwXBvMDUpB2b-1">
          <mxGeometry x="-130" y="540" width="40" height="30" as="geometry" />
        </mxCell>
        <mxCell id="AqVqkzSfWaMEc31fuOZP-27" value="" style="edgeStyle=orthogonalEdgeStyle;html=1;elbow=horizontal;endArrow=none;labelBackgroundColor=none;endSize=12;endFill=0;dashed=1;dashPattern=1 2;rounded=0;strokeColor=#000000;strokeWidth=1;" edge="1" source="AqVqkzSfWaMEc31fuOZP-24" target="AqVqkzSfWaMEc31fuOZP-26" parent="VR5IMITfkwXBvMDUpB2b-1">
          <mxGeometry relative="1" as="geometry">
            <mxPoint x="100" y="550" as="sourcePoint" />
          </mxGeometry>
        </mxCell>
        <mxCell id="AqVqkzSfWaMEc31fuOZP-32" value="Questions" style="shape=message;labelBackgroundColor=none;fillColor=#FFFFFF;align=left;html=1;labelPosition=right;verticalLabelPosition=middle;verticalAlign=middle;" vertex="1" parent="VR5IMITfkwXBvMDUpB2b-1">
          <mxGeometry x="-130" y="360" width="40" height="30" as="geometry" />
        </mxCell>
        <mxCell id="AqVqkzSfWaMEc31fuOZP-33" value="" style="edgeStyle=orthogonalEdgeStyle;html=1;elbow=horizontal;endArrow=none;labelBackgroundColor=none;endSize=12;endFill=0;dashed=1;dashPattern=1 2;rounded=0;strokeColor=#000000;strokeWidth=1;labelPosition=right;verticalLabelPosition=middle;align=left;verticalAlign=middle;" edge="1" source="AqVqkzSfWaMEc31fuOZP-22" target="AqVqkzSfWaMEc31fuOZP-32" parent="VR5IMITfkwXBvMDUpB2b-1">
          <mxGeometry relative="1" as="geometry">
            <mxPoint x="450" y="420" as="sourcePoint" />
          </mxGeometry>
        </mxCell>
        <mxCell id="AqVqkzSfWaMEc31fuOZP-78" style="edgeStyle=orthogonalEdgeStyle;rounded=0;jumpStyle=arc;jumpSize=13;orthogonalLoop=1;jettySize=auto;html=1;startArrow=none;startFill=0;endArrow=classic;endFill=1;strokeColor=#000000;strokeWidth=1;" edge="1" parent="VR5IMITfkwXBvMDUpB2b-1" source="AqVqkzSfWaMEc31fuOZP-34" target="AqVqkzSfWaMEc31fuOZP-77">
          <mxGeometry relative="1" as="geometry" />
        </mxCell>
        <mxCell id="AqVqkzSfWaMEc31fuOZP-34" value="Available?" style="shape=mxgraph.bpmn.gateway2;html=1;verticalLabelPosition=bottom;labelBackgroundColor=#ffffff;verticalAlign=top;align=center;perimeter=rhombusPerimeter;outlineConnect=0;outline=none;symbol=none;gwType=exclusive;fillColor=#FFFFFF;" vertex="1" parent="VR5IMITfkwXBvMDUpB2b-1">
          <mxGeometry x="-10" y="440" width="40" height="40" as="geometry" />
        </mxCell>
        <mxCell id="AqVqkzSfWaMEc31fuOZP-35" value="" style="edgeStyle=orthogonalEdgeStyle;rounded=0;jumpStyle=arc;jumpSize=13;orthogonalLoop=1;jettySize=auto;html=1;startArrow=none;startFill=0;endArrow=classic;endFill=1;strokeColor=#000000;strokeWidth=1;" edge="1" parent="VR5IMITfkwXBvMDUpB2b-1" source="AqVqkzSfWaMEc31fuOZP-23" target="AqVqkzSfWaMEc31fuOZP-34">
          <mxGeometry relative="1" as="geometry" />
        </mxCell>
        <mxCell id="AqVqkzSfWaMEc31fuOZP-41" value="" style="rounded=1;whiteSpace=wrap;html=1;container=1;collapsible=0;absoluteArcSize=1;arcSize=20;childLayout=stackLayout;horizontal=1;horizontalStack=0;resizeParent=1;resizeParentMax=0;resizeLast=0;labelBackgroundColor=none;fillColor=#FFFFFF;align=left;" vertex="1" parent="VR5IMITfkwXBvMDUpB2b-1">
          <mxGeometry x="120" y="350" width="110" height="100" as="geometry" />
        </mxCell>
        <mxCell id="AqVqkzSfWaMEc31fuOZP-42" value="Purchasing" style="html=1;shape=mxgraph.basic.rect;size=10;rectStyle=rounded;bottomRightStyle=square;bottomLeftStyle=square;part=1;" vertex="1" parent="AqVqkzSfWaMEc31fuOZP-41">
          <mxGeometry width="110" height="20" as="geometry" />
        </mxCell>
        <mxCell id="AqVqkzSfWaMEc31fuOZP-43" value="Submit purchase &#xa;order" style="shape=mxgraph.bpmn.task;part=1;taskMarker=abstract;" vertex="1" parent="AqVqkzSfWaMEc31fuOZP-41">
          <mxGeometry y="20" width="110" height="60" as="geometry" />
        </mxCell>
        <mxCell id="AqVqkzSfWaMEc31fuOZP-44" value="Suppliers" style="html=1;shape=mxgraph.basic.rect;size=10;rectStyle=rounded;topRightStyle=square;topLeftStyle=square;fillColor=#C0C0C0;part=1;" vertex="1" parent="AqVqkzSfWaMEc31fuOZP-41">
          <mxGeometry y="80" width="110" height="20" as="geometry" />
        </mxCell>
        <mxCell id="AqVqkzSfWaMEc31fuOZP-45" value="" style="edgeStyle=orthogonalEdgeStyle;rounded=0;jumpStyle=arc;jumpSize=13;orthogonalLoop=1;jettySize=auto;html=1;startArrow=none;startFill=0;endArrow=classic;endFill=1;strokeColor=#000000;strokeWidth=1;" edge="1" parent="VR5IMITfkwXBvMDUpB2b-1" source="AqVqkzSfWaMEc31fuOZP-34" target="AqVqkzSfWaMEc31fuOZP-41">
          <mxGeometry relative="1" as="geometry">
            <mxPoint x="90" y="460" as="sourcePoint" />
            <Array as="points">
              <mxPoint x="10" y="400" />
            </Array>
          </mxGeometry>
        </mxCell>
        <mxCell id="AqVqkzSfWaMEc31fuOZP-74" value="Yes" style="edgeLabel;html=1;align=center;verticalAlign=middle;resizable=0;points=[];" vertex="1" connectable="0" parent="AqVqkzSfWaMEc31fuOZP-45">
          <mxGeometry x="-0.7286" y="-2" relative="1" as="geometry">
            <mxPoint as="offset" />
          </mxGeometry>
        </mxCell>
        <mxCell id="AqVqkzSfWaMEc31fuOZP-46" value="" style="rounded=1;whiteSpace=wrap;html=1;container=1;collapsible=0;absoluteArcSize=1;arcSize=20;childLayout=stackLayout;horizontal=1;horizontalStack=0;resizeParent=1;resizeParentMax=0;resizeLast=0;labelBackgroundColor=none;fillColor=#FFFFFF;align=left;" vertex="1" parent="VR5IMITfkwXBvMDUpB2b-1">
          <mxGeometry x="270" y="350" width="112" height="100" as="geometry" />
        </mxCell>
        <mxCell id="AqVqkzSfWaMEc31fuOZP-47" value="Suppliers" style="html=1;shape=mxgraph.basic.rect;size=10;rectStyle=rounded;bottomRightStyle=square;bottomLeftStyle=square;part=1;" vertex="1" parent="AqVqkzSfWaMEc31fuOZP-46">
          <mxGeometry width="112" height="20" as="geometry" />
        </mxCell>
        <mxCell id="AqVqkzSfWaMEc31fuOZP-48" value="Send items and &#xa;invoice" style="shape=mxgraph.bpmn.task;part=1;taskMarker=abstract;" vertex="1" parent="AqVqkzSfWaMEc31fuOZP-46">
          <mxGeometry y="20" width="112" height="60" as="geometry" />
        </mxCell>
        <mxCell id="AqVqkzSfWaMEc31fuOZP-49" value="Purchasing" style="html=1;shape=mxgraph.basic.rect;size=10;rectStyle=rounded;topRightStyle=square;topLeftStyle=square;fillColor=#C0C0C0;part=1;" vertex="1" parent="AqVqkzSfWaMEc31fuOZP-46">
          <mxGeometry y="80" width="112" height="20" as="geometry" />
        </mxCell>
        <mxCell id="AqVqkzSfWaMEc31fuOZP-50" value="" style="edgeStyle=orthogonalEdgeStyle;rounded=0;jumpStyle=arc;jumpSize=13;orthogonalLoop=1;jettySize=auto;html=1;startArrow=none;startFill=0;endArrow=classic;endFill=1;strokeColor=#000000;strokeWidth=1;" edge="1" parent="VR5IMITfkwXBvMDUpB2b-1" source="AqVqkzSfWaMEc31fuOZP-43" target="AqVqkzSfWaMEc31fuOZP-46">
          <mxGeometry relative="1" as="geometry" />
        </mxCell>
        <mxCell id="AqVqkzSfWaMEc31fuOZP-51" value="" style="rounded=1;whiteSpace=wrap;html=1;container=1;collapsible=0;absoluteArcSize=1;arcSize=20;childLayout=stackLayout;horizontal=1;horizontalStack=0;resizeParent=1;resizeParentMax=0;resizeLast=0;labelBackgroundColor=none;fillColor=#FFFFFF;align=left;" vertex="1" parent="VR5IMITfkwXBvMDUpB2b-1">
          <mxGeometry x="420" y="350" width="120" height="100" as="geometry" />
        </mxCell>
        <mxCell id="AqVqkzSfWaMEc31fuOZP-52" value="Purchasing" style="html=1;shape=mxgraph.basic.rect;size=10;rectStyle=rounded;bottomRightStyle=square;bottomLeftStyle=square;part=1;" vertex="1" parent="AqVqkzSfWaMEc31fuOZP-51">
          <mxGeometry width="120" height="20" as="geometry" />
        </mxCell>
        <mxCell id="AqVqkzSfWaMEc31fuOZP-53" value="Receive items and&#xa;pay invoice" style="shape=mxgraph.bpmn.task;part=1;taskMarker=abstract;" vertex="1" parent="AqVqkzSfWaMEc31fuOZP-51">
          <mxGeometry y="20" width="120" height="60" as="geometry" />
        </mxCell>
        <mxCell id="AqVqkzSfWaMEc31fuOZP-54" value="Suppliers" style="html=1;shape=mxgraph.basic.rect;size=10;rectStyle=rounded;topRightStyle=square;topLeftStyle=square;fillColor=#C0C0C0;part=1;" vertex="1" parent="AqVqkzSfWaMEc31fuOZP-51">
          <mxGeometry y="80" width="120" height="20" as="geometry" />
        </mxCell>
        <mxCell id="AqVqkzSfWaMEc31fuOZP-55" value="" style="rounded=1;whiteSpace=wrap;html=1;container=1;collapsible=0;absoluteArcSize=1;arcSize=20;childLayout=stackLayout;horizontal=1;horizontalStack=0;resizeParent=1;resizeParentMax=0;resizeLast=0;labelBackgroundColor=none;fillColor=#FFFFFF;align=left;" vertex="1" parent="VR5IMITfkwXBvMDUpB2b-1">
          <mxGeometry x="570" y="350" width="120" height="100" as="geometry" />
        </mxCell>
        <mxCell id="AqVqkzSfWaMEc31fuOZP-56" value="Suppliers" style="html=1;shape=mxgraph.basic.rect;size=10;rectStyle=rounded;bottomRightStyle=square;bottomLeftStyle=square;part=1;" vertex="1" parent="AqVqkzSfWaMEc31fuOZP-55">
          <mxGeometry width="120" height="20" as="geometry" />
        </mxCell>
        <mxCell id="AqVqkzSfWaMEc31fuOZP-57" value="Receive payment&#xa;and issue receipt" style="shape=mxgraph.bpmn.task;part=1;taskMarker=abstract;" vertex="1" parent="AqVqkzSfWaMEc31fuOZP-55">
          <mxGeometry y="20" width="120" height="60" as="geometry" />
        </mxCell>
        <mxCell id="AqVqkzSfWaMEc31fuOZP-58" value="Purchasing" style="html=1;shape=mxgraph.basic.rect;size=10;rectStyle=rounded;topRightStyle=square;topLeftStyle=square;fillColor=#C0C0C0;part=1;" vertex="1" parent="AqVqkzSfWaMEc31fuOZP-55">
          <mxGeometry y="80" width="120" height="20" as="geometry" />
        </mxCell>
        <mxCell id="AqVqkzSfWaMEc31fuOZP-60" style="edgeStyle=orthogonalEdgeStyle;rounded=0;jumpStyle=arc;jumpSize=13;orthogonalLoop=1;jettySize=auto;html=1;startArrow=none;startFill=0;endArrow=classic;endFill=1;strokeColor=#000000;strokeWidth=1;" edge="1" parent="VR5IMITfkwXBvMDUpB2b-1" source="AqVqkzSfWaMEc31fuOZP-48" target="AqVqkzSfWaMEc31fuOZP-53">
          <mxGeometry relative="1" as="geometry" />
        </mxCell>
        <mxCell id="AqVqkzSfWaMEc31fuOZP-61" style="edgeStyle=orthogonalEdgeStyle;rounded=0;jumpStyle=arc;jumpSize=13;orthogonalLoop=1;jettySize=auto;html=1;startArrow=none;startFill=0;endArrow=classic;endFill=1;strokeColor=#000000;strokeWidth=1;" edge="1" parent="VR5IMITfkwXBvMDUpB2b-1" source="AqVqkzSfWaMEc31fuOZP-53" target="AqVqkzSfWaMEc31fuOZP-57">
          <mxGeometry relative="1" as="geometry" />
        </mxCell>
        <mxCell id="AqVqkzSfWaMEc31fuOZP-63" value="Purchase order" style="shape=message;labelBackgroundColor=none;fillColor=#FFFFFF;align=left;html=1;labelPosition=right;verticalLabelPosition=middle;verticalAlign=middle;" vertex="1" parent="VR5IMITfkwXBvMDUpB2b-1">
          <mxGeometry x="155" y="300" width="40" height="30" as="geometry" />
        </mxCell>
        <mxCell id="AqVqkzSfWaMEc31fuOZP-64" value="" style="edgeStyle=orthogonalEdgeStyle;html=1;elbow=horizontal;endArrow=none;labelBackgroundColor=none;endSize=12;endFill=0;dashed=1;dashPattern=1 2;rounded=0;strokeColor=#000000;strokeWidth=1;labelPosition=right;verticalLabelPosition=middle;align=left;verticalAlign=middle;" edge="1" source="AqVqkzSfWaMEc31fuOZP-42" target="AqVqkzSfWaMEc31fuOZP-63" parent="VR5IMITfkwXBvMDUpB2b-1">
          <mxGeometry relative="1" as="geometry">
            <mxPoint x="500" y="370" as="sourcePoint" />
          </mxGeometry>
        </mxCell>
        <mxCell id="AqVqkzSfWaMEc31fuOZP-66" value="Items and invoice" style="shape=message;labelBackgroundColor=none;fillColor=#FFFFFF;align=left;html=1;labelPosition=right;verticalLabelPosition=middle;verticalAlign=middle;" vertex="1" parent="VR5IMITfkwXBvMDUpB2b-1">
          <mxGeometry x="306" y="300" width="40" height="30" as="geometry" />
        </mxCell>
        <mxCell id="AqVqkzSfWaMEc31fuOZP-67" value="" style="edgeStyle=orthogonalEdgeStyle;html=1;elbow=horizontal;endArrow=none;labelBackgroundColor=none;endSize=12;endFill=0;dashed=1;dashPattern=1 2;rounded=0;strokeColor=#000000;strokeWidth=1;labelPosition=right;verticalLabelPosition=middle;align=left;verticalAlign=middle;" edge="1" source="AqVqkzSfWaMEc31fuOZP-47" target="AqVqkzSfWaMEc31fuOZP-66" parent="VR5IMITfkwXBvMDUpB2b-1">
          <mxGeometry relative="1" as="geometry">
            <mxPoint x="500" y="370" as="sourcePoint" />
          </mxGeometry>
        </mxCell>
        <mxCell id="AqVqkzSfWaMEc31fuOZP-69" value="Payment" style="shape=message;labelBackgroundColor=none;fillColor=#FFFFFF;align=left;html=1;labelPosition=right;verticalLabelPosition=middle;verticalAlign=middle;" vertex="1" parent="VR5IMITfkwXBvMDUpB2b-1">
          <mxGeometry x="460" y="300" width="40" height="30" as="geometry" />
        </mxCell>
        <mxCell id="AqVqkzSfWaMEc31fuOZP-70" value="" style="edgeStyle=orthogonalEdgeStyle;html=1;elbow=horizontal;endArrow=none;labelBackgroundColor=none;endSize=12;endFill=0;dashed=1;dashPattern=1 2;rounded=0;strokeColor=#000000;strokeWidth=1;labelPosition=right;verticalLabelPosition=middle;align=left;verticalAlign=middle;" edge="1" source="AqVqkzSfWaMEc31fuOZP-52" target="AqVqkzSfWaMEc31fuOZP-69" parent="VR5IMITfkwXBvMDUpB2b-1">
          <mxGeometry relative="1" as="geometry">
            <mxPoint x="500" y="370" as="sourcePoint" />
          </mxGeometry>
        </mxCell>
        <mxCell id="AqVqkzSfWaMEc31fuOZP-72" value="Receipt" style="shape=message;labelBackgroundColor=none;fillColor=#FFFFFF;align=left;html=1;labelPosition=right;verticalLabelPosition=middle;verticalAlign=middle;" vertex="1" parent="VR5IMITfkwXBvMDUpB2b-1">
          <mxGeometry x="610" y="300" width="40" height="30" as="geometry" />
        </mxCell>
        <mxCell id="AqVqkzSfWaMEc31fuOZP-73" value="" style="edgeStyle=orthogonalEdgeStyle;html=1;elbow=horizontal;endArrow=none;labelBackgroundColor=none;endSize=12;endFill=0;dashed=1;dashPattern=1 2;rounded=0;strokeColor=#000000;strokeWidth=1;labelPosition=right;verticalLabelPosition=middle;align=left;verticalAlign=middle;" edge="1" source="AqVqkzSfWaMEc31fuOZP-56" target="AqVqkzSfWaMEc31fuOZP-72" parent="VR5IMITfkwXBvMDUpB2b-1">
          <mxGeometry relative="1" as="geometry">
            <mxPoint x="500" y="370" as="sourcePoint" />
          </mxGeometry>
        </mxCell>
        <mxCell id="AqVqkzSfWaMEc31fuOZP-75" value="" style="shape=mxgraph.bpmn.event;html=1;verticalLabelPosition=bottom;labelBackgroundColor=#ffffff;verticalAlign=top;align=center;perimeter=ellipsePerimeter;outlineConnect=0;aspect=fixed;outline=end;symbol=terminate;fillColor=#FFFFFF;" vertex="1" parent="VR5IMITfkwXBvMDUpB2b-1">
          <mxGeometry x="750" y="380" width="40" height="40" as="geometry" />
        </mxCell>
        <mxCell id="AqVqkzSfWaMEc31fuOZP-76" value="" style="edgeStyle=orthogonalEdgeStyle;rounded=0;jumpStyle=arc;jumpSize=13;orthogonalLoop=1;jettySize=auto;html=1;startArrow=none;startFill=0;endArrow=classic;endFill=1;strokeColor=#000000;strokeWidth=1;" edge="1" parent="VR5IMITfkwXBvMDUpB2b-1" source="AqVqkzSfWaMEc31fuOZP-57" target="AqVqkzSfWaMEc31fuOZP-75">
          <mxGeometry relative="1" as="geometry" />
        </mxCell>
        <mxCell id="AqVqkzSfWaMEc31fuOZP-79" style="edgeStyle=orthogonalEdgeStyle;rounded=0;jumpStyle=arc;jumpSize=13;orthogonalLoop=1;jettySize=auto;html=1;startArrow=none;startFill=0;endArrow=classic;endFill=1;strokeColor=#000000;strokeWidth=1;" edge="1" parent="VR5IMITfkwXBvMDUpB2b-1" source="AqVqkzSfWaMEc31fuOZP-77" target="AqVqkzSfWaMEc31fuOZP-75">
          <mxGeometry relative="1" as="geometry" />
        </mxCell>
        <UserObject label="Not available" id="AqVqkzSfWaMEc31fuOZP-77">
          <mxCell style="shape=mxgraph.bpmn.event;html=1;verticalLabelPosition=bottom;labelBackgroundColor=#ffffff;verticalAlign=top;align=center;perimeter=ellipsePerimeter;outlineConnect=0;aspect=fixed;outline=end;symbol=error;" vertex="1" parent="VR5IMITfkwXBvMDUpB2b-1">
            <mxGeometry x="70" y="510" width="40" height="40" as="geometry" />
          </mxCell>
        </UserObject>
        <mxCell id="AqVqkzSfWaMEc31fuOZP-80" value="Choreography model" style="text;html=1;strokeColor=none;fillColor=none;align=left;verticalAlign=middle;whiteSpace=wrap;rounded=0;labelBackgroundColor=none;fontSize=16;" vertex="1" parent="VR5IMITfkwXBvMDUpB2b-1">
          <mxGeometry x="-200" y="600" width="250" height="20" as="geometry" />
        </mxCell>
        <mxCell id="AqVqkzSfWaMEc31fuOZP-81" value="Orchestration - sub-process for restocking out-of-stock items" style="text;html=1;strokeColor=none;fillColor=none;align=left;verticalAlign=middle;whiteSpace=wrap;rounded=0;labelBackgroundColor=none;fontSize=16;" vertex="1" parent="VR5IMITfkwXBvMDUpB2b-1">
          <mxGeometry x="-200" y="160" width="585" height="20" as="geometry" />
        </mxCell>
        <mxCell id="AqVqkzSfWaMEc31fuOZP-82" value="" style="endArrow=none;html=1;fontSize=16;strokeColor=#000000;strokeWidth=1;" edge="1" parent="VR5IMITfkwXBvMDUpB2b-1">
          <mxGeometry width="50" height="50" relative="1" as="geometry">
            <mxPoint x="-240" y="210" as="sourcePoint" />
            <mxPoint x="880" y="210" as="targetPoint" />
          </mxGeometry>
        </mxCell>
      </root>
    </mxGraphModel>
  </diagram>
  <diagram id="PAtTzV1xPL81SeX0FBOd" name="第 3 页">
    <mxGraphModel dx="1761" dy="1131" grid="1" gridSize="10" guides="1" tooltips="1" connect="1" arrows="1" fold="1" page="1" pageScale="1" pageWidth="827" pageHeight="1169" math="0" shadow="0">
      <root>
        <mxCell id="0" />
        <mxCell id="1" parent="0" />
      </root>
    </mxGraphModel>
  </diagram>
</mxfile>
